<!-- Generated by IcoMoon.io -->
<svg version="1.1" xmlns="http://www.w3.org/2000/svg" width="32" height="32" viewBox="0 0 32 32">
<title>Car-Seat</title>
<path d="M10.89 24.45c0 0-1.052-3.6-2.89-1.004l0.588 4.554h15.965l0.588-4.554c-1.836-2.596-2.89 1.004-2.89 1.004h-11.361zM9.838 20.778c0 0 2.033 0.906 2.008 2.669h9.451c-0.024-1.763 2.008-2.669 2.008-2.669s-0.294-3.55-0.662-7.714c-0.392-4.236-6.072-3.697-6.072-3.697s-5.681-0.539-6.072 3.697c-0.367 4.163-0.662 7.714-0.662 7.714h0.001zM12.801 5.377c0 1.812-0.734 3.354 3.77 3.354s3.77-1.544 3.77-3.354c0-1.836-7.541-1.836-7.541 0h0.001z"></path>
</svg>
